<svg width="100" height="100" viewBox="0 0 100 100" fill="none" xmlns="http://www.w3.org/2000/svg">
<g clip-path="url(#clip0_813_31)">
<circle cx="50" cy="50" r="50" fill="#303030"/>
<path d="M54.6667 59.3333H59.3333V52.3333H66.3333V47.6667H59.3333V40.6667H54.6667V47.6667H47.6667V52.3333H54.6667V59.3333ZM36 69.8333C31.7611 68.3556 28.3681 65.7986 25.8208 62.1625C23.2736 58.5264 22 54.4722 22 50C22 45.5278 23.2736 41.4736 25.8208 37.8375C28.3681 34.2014 31.7611 31.6444 36 30.1667V35.3C33.1222 36.6611 30.8472 38.6639 29.175 41.3083C27.5028 43.9528 26.6667 46.85 26.6667 50C26.6667 53.15 27.5028 56.0472 29.175 58.6917C30.8472 61.3361 33.1222 63.3389 36 64.7V69.8333ZM57 71C54.0833 71 51.3514 70.4458 48.8042 69.3375C46.2569 68.2292 44.0403 66.7319 42.1542 64.8458C40.2681 62.9597 38.7708 60.7431 37.6625 58.1958C36.5542 55.6486 36 52.9167 36 50C36 47.0833 36.5542 44.3514 37.6625 41.8042C38.7708 39.2569 40.2681 37.0403 42.1542 35.1542C44.0403 33.2681 46.2569 31.7708 48.8042 30.6625C51.3514 29.5542 54.0833 29 57 29C59.9167 29 62.6486 29.5542 65.1958 30.6625C67.7431 31.7708 69.9597 33.2681 71.8458 35.1542C73.7319 37.0403 75.2292 39.2569 76.3375 41.8042C77.4458 44.3514 78 47.0833 78 50C78 52.9167 77.4458 55.6486 76.3375 58.1958C75.2292 60.7431 73.7319 62.9597 71.8458 64.8458C69.9597 66.7319 67.7431 68.2292 65.1958 69.3375C62.6486 70.4458 59.9167 71 57 71ZM57 66.3333C61.55 66.3333 65.4097 64.7486 68.5792 61.5792C71.7486 58.4097 73.3333 54.55 73.3333 50C73.3333 45.45 71.7486 41.5903 68.5792 38.4208C65.4097 35.2514 61.55 33.6667 57 33.6667C52.45 33.6667 48.5903 35.2514 45.4208 38.4208C42.2514 41.5903 40.6667 45.45 40.6667 50C40.6667 54.55 42.2514 58.4097 45.4208 61.5792C48.5903 64.7486 52.45 66.3333 57 66.3333Z" fill="white"/>
</g>
<defs>
<clipPath id="clip0_813_31">
<rect width="100" height="100" fill="white"/>
</clipPath>
</defs>
</svg>
