<svg width="100" height="100" viewBox="0 0 100 100" fill="none" xmlns="http://www.w3.org/2000/svg">
<g clip-path="url(#clip0_815_75)">
<circle cx="50" cy="50" r="50" fill="#436794"/>
<path d="M71 59C68.45 59 66.3125 58.1375 64.5875 56.4125C62.8625 54.6875 62 52.55 62 50C62 47.45 62.8625 45.3125 64.5875 43.5875C66.3125 41.8625 68.45 41 71 41C73.55 41 75.6875 41.8625 77.4125 43.5875C79.1375 45.3125 80 47.45 80 50C80 52.55 79.1375 54.6875 77.4125 56.4125C75.6875 58.1375 73.55 59 71 59ZM41 65L36.8 60.725L44.525 53H20V47H44.525L36.8 39.2L41 35L56 50L41 65Z" fill="white"/>
</g>
<defs>
<clipPath id="clip0_815_75">
<rect width="100" height="100" fill="white"/>
</clipPath>
</defs>
</svg>
