<svg width="100" height="100" viewBox="0 0 100 100" fill="none" xmlns="http://www.w3.org/2000/svg">
<g clip-path="url(#clip0_811_13)">
<circle cx="50" cy="50" r="50" fill="#436794"/>
<path d="M64.375 70V64.2667H43.9625C40.9438 64.2667 38.3203 63.3111 36.0922 61.4C33.8641 59.4889 32.75 57.1 32.75 54.2333C32.75 51.3667 33.8641 48.9778 36.0922 47.0667C38.3203 45.1556 40.9438 44.2 43.9625 44.2H62.075L54.6 51.6533L58.625 55.6667L73 41.3333L58.625 27L54.6 31.0133L62.075 38.4667H43.9625C39.3146 38.4667 35.3255 39.9717 31.9953 42.9817C28.6651 45.9917 27 49.7422 27 54.2333C27 58.7244 28.6651 62.475 31.9953 65.485C35.3255 68.495 39.3146 70 43.9625 70H64.375Z" fill="white"/>
</g>
<defs>
<clipPath id="clip0_811_13">
<rect width="100" height="100" fill="white"/>
</clipPath>
</defs>
</svg>
