<svg width="100" height="100" viewBox="0 0 100 100" fill="none" xmlns="http://www.w3.org/2000/svg">
<g clip-path="url(#clip0_811_16)">
<circle cx="50" cy="50" r="50" fill="#303030"/>
<path d="M22.5 65.2778V59.1667H28.6111V65.2778H22.5ZM22.5 53.0556V46.9444H28.6111V53.0556H22.5ZM22.5 40.8333V34.7222H28.6111V40.8333H22.5ZM34.7222 77.5V71.3889H40.8333V77.5H34.7222ZM34.7222 28.6111V22.5H40.8333V28.6111H34.7222ZM46.9444 77.5V71.3889H53.0556V77.5H46.9444ZM46.9444 28.6111V22.5H53.0556V28.6111H46.9444ZM59.1667 77.5V71.3889H65.2778V77.5H59.1667ZM59.1667 28.6111V22.5H65.2778V28.6111H59.1667ZM71.3889 65.2778V59.1667H77.5V65.2778H71.3889ZM71.3889 53.0556V46.9444H77.5V53.0556H71.3889ZM71.3889 40.8333V34.7222H77.5V40.8333H71.3889Z" fill="white"/>
<path d="M71.3906 71.3889V77.5H77.5017V71.3889H71.3906Z" fill="white"/>
<path d="M22.5 71.3889V77.5H28.6111V71.3889H22.5Z" fill="white"/>
<path d="M22.5 22.5V28.6111H28.6111V22.5H22.5Z" fill="white"/>
<path d="M71.3906 22.5V28.6111H77.5017V22.5H71.3906Z" fill="white"/>
</g>
<defs>
<clipPath id="clip0_811_16">
<rect width="100" height="100" fill="white"/>
</clipPath>
</defs>
</svg>
