<svg width="100" height="100" viewBox="0 0 100 100" fill="none" xmlns="http://www.w3.org/2000/svg">
<g clip-path="url(#clip0_811_2)">
<circle cx="50" cy="50" r="50" fill="#303030"/>
<path d="M35.625 70V64.2667H56.0375C59.0562 64.2667 61.6797 63.3111 63.9078 61.4C66.1359 59.4889 67.25 57.1 67.25 54.2333C67.25 51.3667 66.1359 48.9778 63.9078 47.0667C61.6797 45.1556 59.0562 44.2 56.0375 44.2H37.925L45.4 51.6533L41.375 55.6667L27 41.3333L41.375 27L45.4 31.0133L37.925 38.4667H56.0375C60.6854 38.4667 64.6745 39.9717 68.0047 42.9817C71.3349 45.9917 73 49.7422 73 54.2333C73 58.7244 71.3349 62.475 68.0047 65.485C64.6745 68.495 60.6854 70 56.0375 70H35.625Z" fill="white"/>
</g>
<defs>
<clipPath id="clip0_811_2">
<rect width="100" height="100" fill="white"/>
</clipPath>
</defs>
</svg>
